<svg xmlns="http://www.w3.org/2000/svg" viewBox="0 0 512 512" role="img" aria-label="Tempmo thermometer">
  <defs>
    <linearGradient id="background" x1="0" y1="0" x2="1" y2="1">
      <stop stop-color="#0b1f3a"/>
      <stop offset="1" stop-color="#123f50"/>
    </linearGradient>
    <linearGradient id="mercury" x1="0" y1="0" x2="0" y2="1">
      <stop stop-color="#28d2c0"/>
      <stop offset="1" stop-color="#f87568"/>
    </linearGradient>
  </defs>
  <rect x="24" y="24" width="464" height="464" rx="112" fill="url(#background)"/>
  <path d="M256 103c-42 0-76 34-76 76v149a103 103 0 1 0 152 0V179c0-42-34-76-76-76Z" fill="#e8fbf7"/>
  <path d="M256 129c-28 0-50 22-50 50v163a77 77 0 1 0 100 0V179c0-28-22-50-50-50Z" fill="#0b1f3a"/>
  <path d="M256 177v194" stroke="url(#mercury)" stroke-width="39" stroke-linecap="round"/>
  <circle cx="256" cy="381" r="51" fill="#f87568"/>
  <path d="M325 188h30M325 231h22M325 274h30" stroke="#80e6da" stroke-width="13" stroke-linecap="round"/>
</svg>
